<svg xmlns="http://www.w3.org/2000/svg" version="1.1" xmlns:xlink="http://www.w3.org/1999/xlink" xmlns:svgjs="http://svgjs.dev/svgjs" width="100%" height="100%" viewBox="0 0 1000 600"><rect width="1000" height="600" x="0" y="0" fill="#0a4d68"/><g><rect width="333.3333333333333" height="333.3333333333333" y="188.3627678514587" fill="#ffffff" transform="matrix(0.7523752356836644,0,0,0.7523752356836643,0,32.88466448246048)" x="166.1405792236328"/><path d="M271.55083969892894 430.02944677647554L271.55083969892894 430.02944677647554Q268.2181502554628 430.02944677647554 266.2475164975872 428.4645317334566Q264.2479028315075 426.8996166904377 263.95810374946694 424.29142495207293Q263.63932475922235 421.68323321370815 265.088320169425 418.350543770242L265.088320169425 418.350543770242L322.46853841345114 287.73809749457246Q324.3522324467146 283.56499071318876 326.96042418507943 281.7972163127415Q329.5686159234442 280.0294419122942 332.69844600948204 280.0294419122942L332.69844600948204 280.0294419122942Q335.8282760955198 280.0294419122942 338.43646783388465 281.7972163127415Q341.0446595722495 283.56499071318876 342.7254942480846 287.73809749457246L342.7254942480846 287.73809749457246L400.308571849539 418.350543770242Q401.9604266171701 421.68323321370815 401.6706275351296 424.4073445848892Q401.351848544885 427.1314559560702 399.4681545116215 428.5804513662729Q397.584460478358 430.02944677647554 394.2517710348919 430.02944677647554L394.2517710348919 430.02944677647554Q390.4843829683649 430.02944677647554 388.19497022024467 428.05881301859995Q385.9055574721244 426.08817926072425 384.4565620619217 422.32079119419734L384.4565620619217 422.32079119419734L369.0102709891612 386.6465241950074L377.3564845519286 391.0224903338194L287.6346887521787 391.0224903338194L296.18376167237454 386.6465241950074L280.9403299570423 422.32079119419734Q279.08561583198286 426.2910386181526 276.999062441291 428.1747326514161Q274.91250905059917 430.02944677647554 271.55083969892894 430.02944677647554ZM332.90130536691044 301.50355389149786L332.49558665205365 301.50355389149786L298.9078730435556 380.58972338036017L293.8943489242543 376.6194759564048L371.09682437985305 376.6194759564048L366.4890189754085 380.58972338036017L332.90130536691044 301.50355389149786Z " fill="#0a4d68" transform="matrix(0.7523752356836644,0,0,0.7523752356836643,0,32.88466448246048)"/><path d="M590.4133859395356 429.5972449539354L590.4133859395356 429.5972449539354Q587.0999015859124 429.5972449539354 585.1406238811613 428.0413479531036Q583.1525332689874 426.4854509522719 582.8644041947593 423.89228928421903Q582.5474622131085 421.29912761616606 583.988107584249 417.9856432625429L583.988107584249 417.9856432625429L641.037664281413 288.12586950793786Q642.9105032638956 283.9768108390532 645.5036649319485 282.2192234862618Q648.0968266000014 280.4616361334704 651.208620601665 280.4616361334704L651.208620601665 280.4616361334704Q654.3204146033283 280.4616361334704 656.9135762713813 282.2192234862618Q659.5067379394342 283.9768108390532 661.1778865699572 288.12586950793786L661.1778865699572 288.12586950793786L718.4291336190809 417.9856432625429Q720.071469342181 421.29912761616606 719.7833402679529 424.00754091391025Q719.466398286302 426.7159542116543 717.5935593038193 428.1565995827949Q715.7207203213367 429.5972449539354 712.4072359677135 429.5972449539354L712.4072359677135 429.5972449539354Q708.6615580027482 429.5972449539354 706.3853383163462 427.63796724918427Q704.1091186299442 425.67868954443315 702.6684732588037 421.9330115794679L702.6684732588037 421.9330115794679L687.3111936024459 386.4643225419886L695.6093109402152 390.81507156283305L606.4045495591952 390.81507156283305L614.9043572489242 386.4643225419886L599.7487679445261 421.9330115794679Q597.9047418694663 425.8803798963929 595.830212535024 427.7532188788755Q593.7556832005816 429.5972449539354 590.4133859395356 429.5972449539354ZM651.4103109536245 301.8120005337727L651.0069302497052 301.8120005337727L617.6127705466683 380.4424248906214L612.6281375625222 376.4950565736964L689.3857229368882 376.4950565736964L684.8044706566615 380.4424248906214L651.4103109536245 301.8120005337727ZM829.8198337156646 428.1565995827949L753.4944419526407 428.1565995827949Q749.3453832837561 428.1565995827949 747.0403506899313 425.7651282667016Q744.7641310035292 423.3736569506084 744.7641310035292 419.22459828172373L744.7641310035292 419.22459828172373L744.7641310035292 289.7970181384608Q744.7641310035292 285.4174562101937 746.9539119676629 283.1412365237917Q749.1148800243736 280.8650168373897 753.2639386932583 280.8650168373897L753.2639386932583 280.8650168373897Q757.412997362143 280.8650168373897 759.6027783262764 283.1412365237917Q761.79255929041 285.4174562101937 761.79255929041 289.7970181384608L761.79255929041 289.7970181384608L761.79255929041 413.2315135377793L829.8198337156646 413.2315135377793Q833.5655116806299 413.2315135377793 835.6400410150723 415.1907912425303Q837.7145703495146 417.1500689472814 837.7145703495146 420.694056560287L837.7145703495146 420.694056560287Q837.7145703495146 424.2092312658699 835.6400410150723 426.1973218780438Q833.5655116806299 428.1565995827949 829.8198337156646 428.1565995827949L829.8198337156646 428.1565995827949ZM865.9224067164457 429.5972449539354L865.9224067164457 429.5972449539354Q861.7733480475611 429.5972449539354 859.5835670834274 427.23458654526496Q857.4225990267166 424.84311522917176 857.4225990267166 420.694056560287L857.4225990267166 420.694056560287L857.4225990267166 289.3648245271187Q857.4225990267166 285.01407550627437 859.5835670834274 282.7378558198724Q861.7733480475611 280.4616361334704 865.9224067164457 280.4616361334704L865.9224067164457 280.4616361334704Q870.0714653853304 280.4616361334704 872.2612463494638 282.7378558198724Q874.4222144061746 285.01407550627437 874.4222144061746 289.3648245271187L874.4222144061746 289.3648245271187L874.4222144061746 420.694056560287Q874.4222144061746 424.84311522917176 872.3476850717323 427.23458654526496Q870.2731557372899 429.5972449539354 865.9224067164457 429.5972449539354ZM919.2262854486444 429.5972449539354L919.2262854486444 429.5972449539354Q915.0772267797597 429.5972449539354 912.9162587230489 427.23458654526496Q910.7264777589153 424.84311522917176 910.7264777589153 420.694056560287L910.7264777589153 420.694056560287L910.7264777589153 289.16313417515903Q910.7264777589153 284.8123851543147 912.9162587230489 282.62260419018116Q915.0772267797597 280.4616361334704 919.2262854486444 280.4616361334704L919.2262854486444 280.4616361334704Q923.375344117529 280.4616361334704 925.5651250816625 282.62260419018116Q927.7549060457961 284.8123851543147 927.7549060457961 289.16313417515903L927.7549060457961 289.16313417515903L927.7549060457961 348.28722020676537L928.1582867497154 348.28722020676537L995.7821804710508 285.215765858234Q998.2889034168352 282.7378558198724 1000.7668134551968 281.58533952296Q1003.2447234935586 280.4616361334704 1006.1548271432623 280.4616361334704L1006.1548271432623 280.4616361334704Q1010.1021954601874 280.4616361334704 1011.8597828129788 282.30566220853024Q1013.6173701657701 284.17850119101286 1013.2139894618508 286.88691448875704Q1012.8106087579315 289.56651487907834 1010.303885812147 292.0732378248629L1010.303885812147 292.0732378248629L939.5681980891482 357.62260221175575L939.7698884411079 348.488910558725L1013.6173701657701 416.7466882433621Q1016.7291641674336 419.65679189306593 1016.9596674268162 422.6533342650382Q1017.1613577787758 425.67868954443315 1015.1732671666018 427.63796724918427Q1013.2139894618508 429.5972449539354 1009.2666211449259 429.5972449539354L1009.2666211449259 429.5972449539354Q1006.1548271432623 429.5972449539354 1003.9938590865515 428.2718512124861Q1001.8040781224181 426.917644563614 999.0956648246739 424.2092312658699L999.0956648246739 424.2092312658699L928.1582867497154 359.29375084227877L927.7549060457961 359.29375084227877L927.7549060457961 420.694056560287Q927.7549060457961 424.84311522917176 925.6803767113538 427.23458654526496Q923.6058473769115 429.5972449539354 919.2262854486444 429.5972449539354ZM1095.7917821356245 430.0294385652775L1095.7917821356245 430.0294385652775Q1075.4498694951208 430.0294385652775 1060.4095318204138 420.78049528255553Q1045.3691941457068 411.56036490725626 1037.1863284376288 394.76243987975795Q1028.974649822128 377.96451485225975 1028.974649822128 354.9141889140117L1028.974649822128 354.9141889140117Q1028.974649822128 337.5111928306344 1033.6423408246233 323.70981017510826Q1038.3100318271183 309.9084275195823 1047.0403427762299 300.25610353294087Q1055.7418408179185 290.6037795462995 1068.0737651948812 285.33101748792524Q1080.434502479267 280.0294425221282 1095.7917821356245 280.0294425221282L1095.7917821356245 280.0294425221282Q1116.5370754800479 280.0294425221282 1131.5774131547546 289.16313417515903Q1146.6177508294616 298.29682582818987 1154.8006165375396 314.97949922599685Q1162.9834822456178 331.6909855312267 1162.9834822456178 354.712498562052L1162.9834822456178 354.712498562052Q1162.9834822456178 372.14430755285207 1158.229352520854 386.03212893064654Q1153.4464098886674 399.9487632158638 1144.744911846979 409.6875259247736Q1136.0146008978675 419.45510154110616 1123.6826765209048 424.72786359948043Q1111.350752143942 430.0294385652775 1095.7917821356245 430.0294385652775ZM1095.7917821356245 414.8738492608794L1095.7917821356245 414.8738492608794Q1111.5524424959017 414.8738492608794 1122.4437215017238 407.8146869422909Q1133.3350005075463 400.7843375311253 1139.126394899531 387.29989685725013Q1144.9466021989385 373.8154561833751 1144.9466021989385 354.9141889140117L1144.9466021989385 354.9141889140117Q1144.9466021989385 326.5046621951209 1132.182484210634 310.8304405571122Q1119.4183662223288 295.18503182652637 1095.7917821356245 295.18503182652637L1095.7917821356245 295.18503182652637Q1080.434502479267 295.18503182652637 1069.5432234734444 302.24419414511476Q1058.6519444676223 309.2745435562805 1052.8317371682147 322.6725455078871Q1047.0403427762299 336.04173455207103 1047.0403427762299 354.9141889140117L1047.0403427762299 354.9141889140117Q1047.0403427762299 383.15083818836547 1059.8908994868032 398.99793727091105Q1072.7414561973765 414.8738492608794 1095.7917821356245 414.8738492608794Z " fill="#ffffff" transform="matrix(0.7523752356836644,0,0,0.7523752356836643,0,32.88466448246048)"/></g></svg>